#!OML:ASF H:\Punching\Project 1\Capture day 1\Session 1\female.ASF
:FULLY-SPECIFIED
:DEGREES
127
root -0.227302 14.9128 -1.78828 8.59167 0.080633 -0.330895
lowerback 2.9848 -1.09476 -0.197448
upperback -6.07186 -1.50178 -0.184058
thorax -8.03053 -0.734257 0.0660992
lowerneck -15.139 0.552706 6.09473
upperneck 40.3058 -0.11363 -2.97938
head 17.3174 0.456879 -2.48572
rclavicle 9.16273e-015 3.18055e-015
rhumerus 32.5582 10.4925 -61.9504
rradius 64.9357
rwrist -0.804293
rhand 32.9528 -37.136
rfingers 7.12502
rthumb 56.3402 -54.2587
lclavicle 9.16273e-015 3.18055e-015
lhumerus 27.7293 -9.22429 56.7368
lradius 79.7
lwrist -8.97437
lhand 37.1037 27.123
lfingers 7.12502
lthumb 59.954 40.9515
rfemur -27.6031 -6.78634 16.9876
rtibia 51.2094
rfoot -28.5206 -8.39314
rtoes -12.7697
lfemur -28.4869 1.41408 -16.6067
ltibia 50.5191
lfoot -25.3237 8.4279
ltoes -13.3852
128
root -0.223955 14.9132 -1.78823 8.57711 0.0816841 -0.326844
lowerback 2.95721 -1.10215 -0.198082
upperback -6.03525 -1.51149 -0.185468
thorax -7.97472 -0.739248 0.0648655
lowerneck -15.208 0.606963 6.15966
upperneck 40.3296 -0.0428772 -3.01247
head 17.3544 0.492054 -2.50117
rclavicle -2.86374e-015 -5.96354e-015
rhumerus 32.6673 10.5026 -61.9468
rradius 64.9096
rwrist -0.688861
rhand 33.0118 -37.1021
rfingers 7.12502
rthumb 56.3924 -54.1833
lclavicle -2.86374e-015 -5.96354e-015
lhumerus 27.7912 -9.18642 56.7126
lradius 79.6969
lwrist -8.96918
lhand 37.0729 27.1046
lfingers 7.12502
lthumb 59.9276 40.9607
rfemur -27.5783 -6.83223 16.9634
rtibia 51.198
rfoot -28.5273 -8.34029
rtoes -12.8452
lfemur -28.472 1.39464 -16.6262
ltibia 50.5352
lfoot -25.3361 8.45288
ltoes -13.3943
129
root -0.221948 14.9121 -1.78917 8.55884 0.0749465 -0.335977
lowerback 2.96344 -1.09499 -0.184883
upperback -6.03762 -1.50158 -0.19415
thorax -7.98153 -0.735464 0.0475665
lowerneck -15.172 0.643023 6.19586
upperneck 40.3431 1.35246e-005 -3.00241
head 17.3564 0.517261 -2.49512
rclavicle 1.25483e-015 0
rhumerus 32.6639 10.518 -61.9464
rradius 64.92
rwrist -0.588376
rhand 32.9915 -37.1077
rfingers 7.12502
rthumb 56.3745 -54.2032
lclavicle 1.25483e-015 0
lhumerus 27.7964 -9.21912 56.6911
lradius 79.6988
lwrist -8.9644
lhand 37.0476 27.0729
lfingers 7.12502
lthumb 59.906 40.9515
rfemur -27.5623 -6.84826 16.9635
rtibia 51.1939
rfoot -28.5252 -8.32065
rtoes -12.8963
lfemur -28.4668 1.37422 -16.6215
ltibia 50.5581
lfoot -25.3225 8.47604
ltoes -13.4881
130
root -0.219183 14.9114 -1.79023 8.53837 0.0710679 -0.362774
lowerback 2.96848 -1.08125 -0.139657
upperback -6.04107 -1.48039 -0.200241
thorax -7.98956 -0.728003 0.0139463
lowerneck -15.1332 0.668713 6.25329
upperneck 40.3464 0.0375775 -3.03474
head 17.3512 0.537399 -2.513
rclavicle -1.01132e-014 -7.35503e-015
rhumerus 32.6373 10.5261 -61.9051
rradius 64.9406
rwrist -0.525653
rhand 32.9874 -37.0672
rfingers 7.12502
rthumb 56.3708 -54.1655
lclavicle -1.01132e-014 -7.35503e-015
lhumerus 27.813 -9.25762 56.6901
lradius 79.7015
lwrist -8.95568
lhand 37.0232 27.0621
lfingers 7.12502
lthumb 59.8851 40.9624
rfemur -27.5387 -6.86787 16.9799
rtibia 51.1877
rfoot -28.5284 -8.29009
rtoes -12.8777
lfemur -28.457 1.35542 -16.601
ltibia 50.5807
lfoot -25.3268 8.49583
ltoes -13.4723
131
root -0.216282 14.9106 -1.79142 8.51217 0.0606571 -0.360027
lowerback 2.98515 -1.07921 -0.141402
upperback -6.03927 -1.47795 -0.202092
thorax -7.9974 -0.726721 0.0130701
lowerneck -15.0995 0.702903 6.28728
upperneck 40.3418 0.0912974 -3.05605
head 17.3441 0.561706 -2.51847
rclavicle -8.87698e-015 -3.97569e-016
rhumerus 32.6486 10.5663 -61.8717
rradius 64.9456
rwrist -0.478779
rhand 32.9014 -36.9964
rfingers 7.12502
rthumb 56.2948 -54.1552
lclavicle -8.87698e-015 -3.97569e-016
lhumerus 27.8016 -9.26622 56.6797
lradius 79.7035
lwrist -8.93642
lhand 36.9818 27.0755
lfingers 7.12502
lthumb 59.8497 41.0126
rfemur -27.5161 -6.8895 16.9593
rtibia 51.1826
rfoot -28.5344 -8.26291
rtoes -12.8993
lfemur -28.4399 1.33431 -16.6151
ltibia 50.6033
lfoot -25.3362 8.52923
ltoes -13.4488
132
root -0.214427 14.9093 -1.7935 8.50204 0.0417518 -0.369293
lowerback 2.99906 -1.06921 -0.130618
upperback -6.04713 -1.46454 -0.211792
thorax -8.0146 -0.721078 -0.0040771
lowerneck -15.0707 0.733565 6.33596
upperneck 40.334 0.131701 -3.07156
head 17.3357 0.583627 -2.52631
rclavicle 3.93842e-015 9.34288e-015
rhumerus 32.6598 10.6 -61.8282
rradius 64.9685
rwrist -0.470271
rhand 32.878 -36.9895
rfingers 7.12502
rthumb 56.2741 -54.1647
lclavicle 3.93842e-015 9.34288e-015
lhumerus 27.8108 -9.28519 56.6672
lradius 79.7003
lwrist -8.943
lhand 36.964 27.0268
lfingers 7.12502
lthumb 59.8344 40.9797
rfemur -27.5202 -6.87097 16.9605
rtibia 51.1809
rfoot -28.5302 -8.26056
rtoes -12.9168
lfemur -28.4477 1.31979 -16.6135
ltibia 50.6275
lfoot -25.3434 8.57337
ltoes -13.5141
133
root -0.211642 14.9087 -1.79433 8.48031 0.0416376 -0.400763
lowerback 3.01013 -1.06244 -0.0883097
upperback -6.04799 -1.45226 -0.208612
thorax -8.023 -0.717499 -0.0253799
lowerneck -15.0198 0.757734 6.36414
upperneck 40.3148 0.171969 -3.08917
head 17.3148 0.601766 -2.53084
rclavicle 1.40392e-014 1.39149e-015
rhumerus 32.6477 10.6419 -61.7619
rradius 65.0037
rwrist -0.491396
rhand 32.8425 -36.9419
rfingers 7.12502
rthumb 56.2427 -54.1418
lclavicle 1.40392e-014 1.39149e-015
lhumerus 27.8021 -9.29897 56.6747
lradius 79.7153
lwrist -8.94189
lhand 36.9736 27.0315
lfingers 7.12502
lthumb 59.8426 40.976
rfemur -27.4897 -6.87971 16.9794
rtibia 51.1686
rfoot -28.5311 -8.25044
rtoes -12.9948
lfemur -28.4376 1.29449 -16.5907
ltibia 50.6482
lfoot -25.3445 8.61779
ltoes -13.5214
